<svg xmlns="http://www.w3.org/2000/svg" width="374.2" height="115.28" viewBox="0 0 374.2 115.28"><defs><style>.cls-1{fill:#28226f;}</style></defs><g id="レイヤー_2" data-name="レイヤー 2"><g id="レイヤー_1-2" data-name="レイヤー 1"><path class="cls-1" d="M1.48,108.58c-1.89-2.06-1.93-4.64-.36-7.08C3,98.57,5.9,97.76,8.24,99.26a4.14,4.14,0,0,1,1.66,5.39l.15.09a4.64,4.64,0,0,1,6.21-.8c2.84,1.82,3.46,5.12,1.49,8.2-1.7,2.65-3.89,3.71-6.83,2.84l.9-3.08c1.85.68,3,.34,3.87-1.05s.57-3.11-1.14-4.2-3.45-1-4.9,1.26l-.78,1.22-2.14-1.38.71-1.11c1.35-2.11,1-3.53-.64-4.57a2.43,2.43,0,0,0-3.67.77,2.65,2.65,0,0,0,.78,3.65Z"/><path class="cls-1" d="M32.3,81.7c1.33,1.11,2.84,2.27,3.89,3.15A2.81,2.81,0,0,1,37.46,87c0,.89-.4,1.62-2.1,3.65-.5.6-.51.65-1.19.22a6.84,6.84,0,0,0-2-.85c.76-.76,1.29-1.36,1.92-2.11A.78.78,0,0,0,34,86.63l-3.36-2.8-5.72,6.85a13.08,13.08,0,0,1,3.64,7.73c.05.37.09.56,0,.68s-.29.15-.67.18a5.84,5.84,0,0,0-2.06.63c-.25-4.5-1.35-6.5-7.18-11.37l-2.82-2.35c-1.64-1.36-2.53-2.05-2.65-2.14s-.21-.21-.05-.41.68-.73,2.17-2.52l4.45-5.33c1.49-1.79,2-2.43,2.08-2.57s.19-.19.4,0,.95.86,2.58,2.22ZM16.62,83.33l2.32,1.94,5.5-6.58-2.33-1.94Zm12.11-1.06-2.43-2-5.5,6.58c.89.78,1.68,1.47,2.38,2.12Z"/><path class="cls-1" d="M49.59,70l2.62-2.43,1.65,1.77-7.53,7-1.66-1.77L47.42,72,38.15,62a14.4,14.4,0,0,1-1.42,3.65L34.57,64.1a14.09,14.09,0,0,0,1.72-4.68l1.87-1.74Z"/><path class="cls-1" d="M47.1,56.45a5.59,5.59,0,0,1,1.25-7.8c2.66-2.15,5.59-2.14,7.67.42,1.34,1.66,1.62,3.48,1.06,7.44-.56,3.48-.65,5.35-.28,7.05l6.67-5.4,1.57,2-9.2,7.43-1.39-1.73a24.1,24.1,0,0,1-.22-8.92c.44-3.44.24-4.57-.75-5.79a2.38,2.38,0,0,0-3.61-.49c-1.23,1-1.25,2.52.07,4.38Z"/><path class="cls-1" d="M75.41,54.47c-.21.14-.25.13-.38-.08s-.82-1.44-4.63-7.6l-2.54-4.11c-2.55-4.13-3.39-5.4-3.47-5.53s-.14-.26.08-.4.89-.49,3-1.77l7.29-4.5c2.07-1.28,2.79-1.78,2.91-1.86s.25-.12.39.11.84,1.45,3,4.94l2.91,4.72c3.77,6.11,4.59,7.34,4.67,7.47s.13.24-.09.38l-1.89,1.17c-.21.13-.25.12-.38-.09l-.64-1-8.92,5.51.71,1.15c.13.21.13.24-.09.38Zm-4.5-12,8.92-5.51-3-4.85-8.91,5.51ZM84.3,44.17,81.12,39l-8.92,5.5,3.18,5.15Z"/><path class="cls-1" d="M104.48,13.66c-2.34,4.85-2.17,8.75-.33,12.75s4.69,6.68,9.89,8.06l-.27,1c-5.82-1.18-9.2-3.81-11.26-8.29s-1.84-8.75,1.06-13.93Z"/><path class="cls-1" d="M118.29,31.76c-2.12.68-2.82.95-3,1s-.24.05-.32-.19l-.63-2c-.07-.24-.06-.27.16-.33s.87-.23,3-.9l5.89-1.87-2.58-8.13L117,20.56c-2.33.75-3.1,1-3.25,1.09s-.27.06-.34-.18l-.63-2c-.08-.24-.06-.27.18-.34s.94-.25,3.28-1L120.07,17l-1.18-3.69a25.44,25.44,0,0,0-1.37-3.68c.89-.26,2-.55,2.84-.72.22,0,.42,0,.47.17a1.37,1.37,0,0,1,0,.57,11,11,0,0,0,.72,2.76l1.19,3.74,4.2-1.33c2.31-.74,3.08-1,3.22-1.08s.3-.06.37.17l.63,2c.07.24.06.27-.2.35s-.95.25-3.26,1l-4.2,1.33,2.58,8.12,6.27-2c2.12-.68,2.82-.95,3-1s.24,0,.32.19l.63,2c.07.24.06.27-.16.33s-.87.23-3,.9Z"/><path class="cls-1" d="M134.47,3.42c5.36,2.56,8,5.93,8.9,10.77S143,23.13,139,27.45l-.78-.64c3.45-4.13,4.23-8,3.42-12.29S138.68,6.91,134,4.3Z"/><path class="cls-1" d="M169.53,13.69l-7.26.71L162,12l7.26-.71Z"/><path class="cls-1" d="M179.73,4.14C180.45,1.44,182.6,0,185.5,0c3.47,0,5.73,2,5.74,4.78a4.15,4.15,0,0,1-3.64,4.31v.18a4.64,4.64,0,0,1,4,4.79c0,3.37-2.43,5.68-6.09,5.69-3.15,0-5.23-1.26-6.08-4.2l3.07-.91c.43,1.92,1.33,2.69,3,2.69s2.92-1.21,2.92-3.24-1-3.44-3.71-3.44h-1.45V8.11h1.32c2.51,0,3.5-1.08,3.5-3a2.42,2.42,0,0,0-2.64-2.66c-1.32,0-2.39.83-2.64,2.63Z"/><path class="cls-1" d="M219,15.53c-.21,1.71-.37,3.6-.54,5a2.84,2.84,0,0,1-1.08,2.2c-.72.52-1.58.54-4.21.21-.77-.09-.82-.07-.82-.88a6.93,6.93,0,0,0-.39-2.16c1.06.23,1.85.35,2.81.47a.78.78,0,0,0,1-.76l.54-4.34-8.86-1.1a13.09,13.09,0,0,1-4.52,7.25c-.29.24-.43.37-.58.35s-.28-.16-.52-.47a5.59,5.59,0,0,0-1.64-1.38c3.65-2.65,4.73-4.65,5.67-12.19l.45-3.65c.27-2.11.36-3.23.37-3.38s.07-.3.31-.26,1,.17,3.3.46l6.89.85c2.31.29,3.11.34,3.28.36s.27.06.24.33-.21,1.26-.47,3.37Zm-2.41-2.7L217,9.68l-8.51-1c-.17,1.16-.32,2.2-.49,3.13Zm-7.45-9.61-.37,3,8.51,1.06.37-3Z"/><path class="cls-1" d="M233.75,10.51a5.6,5.6,0,0,1,7-3.65c3.32.85,5.06,3.21,4.24,6.41-.53,2.05-1.82,3.37-5.33,5.29-3.13,1.62-4.69,2.67-5.82,4l8.3,2.13-.62,2.42-11.45-2.94.55-2.15a23.86,23.86,0,0,1,7-5.5c3-1.71,3.8-2.54,4.19-4.07a2.39,2.39,0,0,0-1.77-3.19c-1.52-.39-2.76.51-3.47,2.68Z"/><path class="cls-1" d="M251.83,27.88,255.22,29l-.77,2.3-9.77-3.26.76-2.3L249,26.94,253.3,14a13.79,13.79,0,0,1-3.88.5l.35-2.65a14.06,14.06,0,0,0,4.94-.73l2.42.81Z"/><path class="cls-1" d="M265.17,37.15c-.22-.11-.23-.14-.12-.37s.76-1.46,3.91-8l2.09-4.34c2.11-4.37,2.73-5.77,2.79-5.9s.16-.26.38-.15.9.49,3.09,1.54L285,23.66c2.19,1.05,3,1.39,3.13,1.45s.24.14.12.39-.77,1.49-2.55,5.18l-2.42,5c-3.11,6.46-3.71,7.81-3.77,8s-.15.24-.37.13l-2-1c-.22-.11-.23-.14-.12-.37l.53-1.1-9.44-4.55L267.55,38c-.11.22-.15.23-.37.12Zm13.47,1.94,2.63-5.45-9.43-4.55-2.63,5.45ZM272.9,26.88l9.44,4.55,2.47-5.13-9.43-4.55Z"/><path class="cls-1" d="M315.22,39.66c-5.34.64-8.54,2.89-10.92,6.59s-3.1,7.55-1.46,12.67l-1,.3c-2.15-5.54-1.76-9.8.91-13.94s6.37-6.28,12.3-6.62Z"/><path class="cls-1" d="M323.5,65.28c-1.1,1.33-2.26,2.84-3.14,3.89a2.79,2.79,0,0,1-2.1,1.28c-.88,0-1.61-.4-3.65-2.09-.6-.5-.65-.51-.22-1.19a6.59,6.59,0,0,0,.84-2c.77.76,1.37,1.29,2.12,1.92a.78.78,0,0,0,1.23-.12l2.79-3.36-6.86-5.7a13.06,13.06,0,0,1-7.72,3.66c-.37.05-.56.09-.67,0s-.15-.29-.19-.68a5.85,5.85,0,0,0-.63-2.05c4.5-.26,6.49-1.36,11.34-7.21L319,48.77c1.36-1.64,2-2.53,2.14-2.65s.21-.21.4,0,.74.67,2.52,2.16l5.35,4.44c1.79,1.48,2.43,2,2.57,2.07s.19.19,0,.4-.86,1-2.21,2.59Zm-.58-3.56,2-2.45-6.59-5.47c-.77.88-1.46,1.68-2.11,2.37Zm-1.08-12.11-1.93,2.32,6.59,5.48,1.93-2.33Z"/><path class="cls-1" d="M340.32,77.51a2.5,2.5,0,1,1,.1-3.54A2.52,2.52,0,0,1,340.32,77.51Z"/><path class="cls-1" d="M358.21,87.3a1.21,1.21,0,0,0,.43.42.84.84,0,0,1,.28.2c.11.17.14.37.05,1.18s-.2.86-.34,1a.67.67,0,0,1-.65,0,2.31,2.31,0,0,0-1.11.06,20.72,20.72,0,0,1-3.76.5,12.11,12.11,0,0,0-.45,4.65,6.72,6.72,0,0,0-2.24,0c-.24,0-.36,0-.44-.08a.79.79,0,0,1,0-.52,15.56,15.56,0,0,1,.7-2.88l-4.89,3.6c-1.49,1.09-2.85,2.15-2.95,2.23s-.24.14-.4-.08L341.23,96c-.16-.22-.16-.26,0-.41s1.52-1.05,3-2.15l4.13-3c-1-.14-2.06-.32-3.07-.51a1.16,1.16,0,0,1-.61-.23c-.07-.1,0-.25.16-.46A6.68,6.68,0,0,0,346,87.33a17.68,17.68,0,0,0,9.81.61l-1.61-2.2c-1.08-1.47-1.48-1.92-1.57-2s-.14-.24.06-.39l1.49-1.09c.2-.15.24-.15.38,0s.41.64,1.49,2.11l.21.28.82-.61a11.89,11.89,0,0,0,2.31-2,23.54,23.54,0,0,1,1.42,2.31c.13.22.14.4,0,.47a1,1,0,0,1-.51.19,4.39,4.39,0,0,0-1.7,1l-.91.66Zm-1.3,10.64c-4.83,3.48-8.24,4.07-12.07,2.23a1.66,1.66,0,0,1-.53-.33c-.1-.14-.06-.29.08-.74a6.44,6.44,0,0,0,.26-1.92c3.71,2.26,6.34,2.13,10.78-1.26-.81-1-1.14-1.46-1.22-1.56s-.14-.24.06-.38.76-.5,2.07-1.46L360,89.81c1.29-1,1.85-1.42,2-1.52s.23-.14.38.06.51.77,1.78,2.5l3,4.07c1.28,1.73,1.78,2.33,1.87,2.45s.15.26,0,.4-.75.5-2,1.45l-3.69,2.71c-1.31,1-1.88,1.44-2,1.53s-.24.14-.4-.08-.48-.7-1.51-2.14l-6.09,4.47c-.42.31-.55.44-.54.65a1.49,1.49,0,0,0,.39.83.87.87,0,0,0,.77.46c.38,0,.81-.26,2.59-1.54a5.71,5.71,0,0,0,.37,1.72c.24.63.22.64-.3,1-2,1.34-2.79,1.53-3.49,1.36a4.21,4.21,0,0,1-2-1.79c-.94-1.29-1.21-1.9-1.21-2.37s.19-1,1.2-1.75l6.86-5Zm8.81-1-3.91-5.32-4.33,3.19,3.91,5.31Z"/><path class="cls-1" d="M374.2,101.35c-.7,5.9-3.05,9.48-7.34,11.9s-8.57,2.55-14,.08l.35-.94c5,1.93,8.9,1.44,12.74-.71s6.27-5.22,7.22-10.51Z"/></g></g></svg>