<svg xmlns="http://www.w3.org/2000/svg" xmlns:xlink="http://www.w3.org/1999/xlink" width="500" height="77.216" viewBox="0 0 500 77.216">
  <defs>
    <clipPath id="clip-path">
      <rect id="Rectangle_6" data-name="Rectangle 6" width="500" height="77.216" fill="none"/>
    </clipPath>
  </defs>
  <g id="footer" transform="translate(-710 234.997)">
    <g id="Group_7" data-name="Group 7" transform="translate(710 -234.998)">
      <g id="Group_6" data-name="Group 6" transform="translate(0 0)" clip-path="url(#clip-path)">
        <path id="Path_25" data-name="Path 25" d="M17.7,71.057,35.2,43.9,17.1,41.41,56.159,4.225A38.6,38.6,0,0,0,17.7,71.057" transform="translate(0 0)" fill="#fff"/>
        <path id="Path_26" data-name="Path 26" d="M56.936,5.4l-17.5,27.158,18.1,2.49L18.472,72.237A38.6,38.6,0,0,0,56.936,5.4" transform="translate(2.585 0.756)" fill="#fff"/>
        <path id="Path_27" data-name="Path 27" d="M93.408,15.955h13.575L98.929,56.22H85.355Z" transform="translate(11.943 2.232)" fill="#fff"/>
        <path id="Path_28" data-name="Path 28" d="M139.191,25.932q3.076,2.76,3.077,7.937a20.231,20.231,0,0,1-.4,3.969L138.415,55.21h-13l3.163-15.818a14.038,14.038,0,0,0,.23-1.9q0-3.392-3.278-3.394-4.6,0-5.81,5.982L116.672,55.21h-13l6.27-31.463h12.252l-.633,3.163a13.275,13.275,0,0,1,4.457-2.819,14.028,14.028,0,0,1,4.976-.92,11.813,11.813,0,0,1,8.2,2.761" transform="translate(14.506 3.242)" fill="#fff"/>
        <path id="Path_29" data-name="Path 29" d="M180.011,23.747l-6.27,31.464H161.489l.576-2.877a11.818,11.818,0,0,1-8.514,3.452,12.257,12.257,0,0,1-6.213-1.726,13.067,13.067,0,0,1-4.861-5.033,15.581,15.581,0,0,1-1.869-7.794,18.8,18.8,0,0,1,2.273-9.2,17.086,17.086,0,0,1,6.126-6.5,15.69,15.69,0,0,1,8.34-2.359q6.327,0,8.975,3.911l.69-3.335ZM155.018,44.195a4.4,4.4,0,0,0,3.422,1.352,5.039,5.039,0,0,0,4.113-1.956,8.076,8.076,0,0,0,1.582-5.235,5.119,5.119,0,0,0-1.237-3.594,4.41,4.41,0,0,0-3.423-1.352,5.04,5.04,0,0,0-4.112,1.956,8.071,8.071,0,0,0-1.582,5.233,5.113,5.113,0,0,0,1.237,3.6" transform="translate(19.674 3.242)" fill="#fff"/>
        <path id="Path_30" data-name="Path 30" d="M208.836,31.153l-15.415,14.5h13.172l-1.9,9.49H174.669l1.5-7.478,15.415-14.5H179.5l1.9-9.49h28.932Z" transform="translate(24.44 3.312)" fill="#fff"/>
        <path id="Path_31" data-name="Path 31" d="M245.885,23.676l-6.27,31.464H227.364L228,51.977a13.362,13.362,0,0,1-4.429,2.818,13.645,13.645,0,0,1-4.889.92,11.618,11.618,0,0,1-8.111-2.761q-3.05-2.761-3.048-7.938a20.159,20.159,0,0,1,.4-3.968l3.451-17.371h13l-3.164,15.818a13.711,13.711,0,0,0-.229,1.956q0,3.336,3.163,3.335,4.485,0,5.694-5.981l3.049-15.128Z" transform="translate(29.037 3.312)" fill="#fff"/>
        <path id="Path_32" data-name="Path 32" d="M296.7,25.96q3.02,2.792,3.02,7.967a19.38,19.38,0,0,1-.4,3.911L295.866,55.21h-13l3.163-15.7a8.483,8.483,0,0,0,.231-1.956,3.864,3.864,0,0,0-.749-2.589,2.6,2.6,0,0,0-2.07-.863q-3.969,0-5.062,5.522L275.274,55.21h-13l3.164-15.7a8.543,8.543,0,0,0,.229-1.956,3.864,3.864,0,0,0-.748-2.589,2.6,2.6,0,0,0-2.07-.863q-3.912,0-5.119,5.753L254.681,55.21h-13l6.271-31.463H260.2l-.633,3.048a13.108,13.108,0,0,1,4.256-2.732,12.958,12.958,0,0,1,4.717-.891,11.7,11.7,0,0,1,5.407,1.265,9.063,9.063,0,0,1,3.854,3.739,14.159,14.159,0,0,1,4.889-3.71,14.584,14.584,0,0,1,6.154-1.294A11.115,11.115,0,0,1,296.7,25.96" transform="translate(33.817 3.242)" fill="#fff"/>
        <path id="Path_33" data-name="Path 33" d="M335.074,23.747,328.8,55.211H316.553l.576-2.877a11.816,11.816,0,0,1-8.514,3.452,12.25,12.25,0,0,1-6.211-1.726,13.059,13.059,0,0,1-4.861-5.033,15.581,15.581,0,0,1-1.869-7.794,18.815,18.815,0,0,1,2.272-9.2,17.087,17.087,0,0,1,6.126-6.5,15.694,15.694,0,0,1,8.341-2.359q6.327,0,8.974,3.911l.69-3.335ZM310.082,44.195a4.4,4.4,0,0,0,3.423,1.352,5.037,5.037,0,0,0,4.112-1.956,8.07,8.07,0,0,0,1.582-5.235,5.119,5.119,0,0,0-1.237-3.594,4.408,4.408,0,0,0-3.422-1.352,5.04,5.04,0,0,0-4.113,1.956,8.078,8.078,0,0,0-1.582,5.233,5.113,5.113,0,0,0,1.237,3.6" transform="translate(41.372 3.242)" fill="#fff"/>
        <path id="Path_34" data-name="Path 34" d="M388.929,15.955,380.877,56.22H369.718L358.155,37.468,354.417,56.22h-13.23l8.052-40.264H360.4l11.561,18.752L375.7,15.955Z" transform="translate(47.74 2.232)" fill="#fff"/>
        <path id="Path_35" data-name="Path 35" d="M417.466,42.5h-22.03a3.987,3.987,0,0,0,1.9,2.819,8.33,8.33,0,0,0,4.141.863,11.141,11.141,0,0,0,6.845-2.186l5.407,7.88a23.856,23.856,0,0,1-13.747,3.911A21.758,21.758,0,0,1,390.92,54a13.986,13.986,0,0,1-6.1-5.061,13.7,13.7,0,0,1-2.157-7.708,17.831,17.831,0,0,1,2.444-9.29,17.034,17.034,0,0,1,6.874-6.442,21.542,21.542,0,0,1,10.182-2.33,19.493,19.493,0,0,1,8.57,1.754,12.759,12.759,0,0,1,5.522,4.889,13.666,13.666,0,0,1,1.9,7.219,23.42,23.42,0,0,1-.691,5.465m-19.413-9.347a6.64,6.64,0,0,0-2.1,3.078h10.3a3.907,3.907,0,0,0-1.265-3.078,4.941,4.941,0,0,0-3.395-1.122,5.507,5.507,0,0,0-3.537,1.122" transform="translate(53.544 3.242)" fill="#fff"/>
        <path id="Path_36" data-name="Path 36" d="M431.882,43.642a6.931,6.931,0,0,0-.115.92q0,2.187,2.417,2.186A6.961,6.961,0,0,0,437.059,46l1.5,8.744a17.5,17.5,0,0,1-8.513,1.84q-5.35,0-8.427-2.559a8.864,8.864,0,0,1-3.077-7.219,14.809,14.809,0,0,1,.344-3.106l1.611-7.937h-4.372l1.9-9.491h4.314l1.783-8.8h13l-1.783,8.8h6.443l-1.9,9.491h-6.442Z" transform="translate(58.225 2.444)" fill="#fff"/>
      </g>
    </g>
  </g>
</svg>
