<svg xmlns="http://www.w3.org/2000/svg" width="560.256" height="560.245" viewBox="0 0 560.256 560.245">
  <g id="Group_211" data-name="Group 211" transform="translate(-660.171 -2895.489)" opacity="0.1">
    <g id="Group_244" data-name="Group 244">
      <path id="Path_1398" data-name="Path 1398" d="M181.693,515.56,308.687,318.513,177.375,300.449l283.4-269.8a279.541,279.541,0,0,0-89.175-28C218.353-18.434,77.03,88.705,55.949,241.957c-15.321,111.373,37.127,216.4,125.744,273.6" transform="translate(606.867 2895.489)" fill="#28226f"/>
      <path id="Path_1399" data-name="Path 1399" d="M350.712,5.361,223.718,202.409,355.03,220.472l-283.4,269.8a279.561,279.561,0,0,0,89.167,28c153.252,21.081,294.575-86.058,315.656-239.31,15.321-111.365-37.127-216.4-125.744-273.6" transform="translate(741.326 2934.813)" fill="#28226f"/>
    </g>
  </g>
</svg>
