<svg id="グループ_5" data-name="グループ 5" xmlns="http://www.w3.org/2000/svg" xmlns:xlink="http://www.w3.org/1999/xlink" width="158.713" height="89.181" viewBox="0 0 158.713 89.181">
  <defs>
    <clipPath id="clip-path">
      <rect id="長方形_5" data-name="長方形 5" width="158.713" height="89.181" fill="none"/>
    </clipPath>
  </defs>
  <g id="グループ_4" data-name="グループ 4" clip-path="url(#clip-path)">
    <path id="パス_13" data-name="パス 13" d="M67.367,56.475,81.278,34.89,66.894,32.911,97.938,3.357a30.682,30.682,0,0,0-30.57,53.117" transform="translate(-4.633 0)" fill="#fff"/>
    <path id="パス_14" data-name="パス 14" d="M102.2,5.361,88.292,26.945l14.384,1.979L71.633,58.478A30.682,30.682,0,0,0,102.2,5.361" transform="translate(-6.226 -0.466)" fill="#fff"/>
    <path id="パス_15" data-name="パス 15" d="M3.174,80.042h5.35L5.35,95.912H0Z" transform="translate(0 -6.957)" fill="#fff"/>
    <path id="パス_16" data-name="パス 16" d="M23.011,84.68a3.988,3.988,0,0,1,1.212,3.128,7.948,7.948,0,0,1-.159,1.564L22.7,96.219H17.581l1.246-6.234a5.563,5.563,0,0,0,.091-.749A1.163,1.163,0,0,0,17.626,87.9q-1.813,0-2.289,2.359l-1.2,5.962H9.012l2.472-12.4h4.828l-.25,1.246a5.262,5.262,0,0,1,1.757-1.111,5.544,5.544,0,0,1,1.962-.362,4.658,4.658,0,0,1,3.231,1.088" transform="translate(-0.783 -7.265)" fill="#fff"/>
    <path id="パス_17" data-name="パス 17" d="M42.716,83.819l-2.472,12.4H35.416l.227-1.134a4.657,4.657,0,0,1-3.356,1.361,4.833,4.833,0,0,1-2.449-.68,5.152,5.152,0,0,1-1.916-1.983,6.14,6.14,0,0,1-.737-3.072,7.415,7.415,0,0,1,.9-3.628A6.731,6.731,0,0,1,30.5,84.522a6.184,6.184,0,0,1,3.287-.93,3.956,3.956,0,0,1,3.537,1.542l.271-1.315Zm-9.85,8.059a1.736,1.736,0,0,0,1.349.533,1.985,1.985,0,0,0,1.621-.772,3.178,3.178,0,0,0,.624-2.063,2.018,2.018,0,0,0-.488-1.417,1.739,1.739,0,0,0-1.349-.532A1.988,1.988,0,0,0,33,88.4a3.18,3.18,0,0,0-.624,2.063,2.017,2.017,0,0,0,.488,1.417" transform="translate(-2.363 -7.265)" fill="#fff"/>
    <path id="パス_18" data-name="パス 18" d="M57.411,86.788,51.335,92.5h5.192l-.748,3.74H43.945l.59-2.947,6.076-5.713H45.85l.748-3.74H58Z" transform="translate(-3.819 -7.287)" fill="#fff"/>
    <path id="パス_19" data-name="パス 19" d="M75.23,83.841l-2.471,12.4H67.93l.249-1.247a5.254,5.254,0,0,1-1.745,1.111,5.376,5.376,0,0,1-1.928.362,4.579,4.579,0,0,1-3.2-1.088,4,4,0,0,1-1.2-3.128,7.96,7.96,0,0,1,.158-1.564l1.36-6.846h5.123L65.5,90.076a5.363,5.363,0,0,0-.091.771q0,1.315,1.247,1.315,1.768,0,2.244-2.359l1.2-5.962Z" transform="translate(-5.224 -7.287)" fill="#fff"/>
    <path id="パス_20" data-name="パス 20" d="M98.6,84.692a4.063,4.063,0,0,1,1.191,3.14,7.674,7.674,0,0,1-.159,1.541L98.272,96.22H93.149L94.4,90.031a3.31,3.31,0,0,0,.091-.771,1.521,1.521,0,0,0-.295-1.02,1.021,1.021,0,0,0-.816-.341q-1.564,0-2,2.177L90.157,96.22H85.033l1.247-6.189a3.358,3.358,0,0,0,.09-.771,1.521,1.521,0,0,0-.295-1.02,1.02,1.02,0,0,0-.815-.341q-1.542,0-2.018,2.267l-1.2,6.053H76.917l2.471-12.4h4.829l-.249,1.2a5.172,5.172,0,0,1,1.677-1.077,5.093,5.093,0,0,1,1.859-.352,4.613,4.613,0,0,1,2.131.5,3.57,3.57,0,0,1,1.518,1.474A5.579,5.579,0,0,1,93.08,84.1a5.736,5.736,0,0,1,2.426-.51,4.378,4.378,0,0,1,3.094,1.1" transform="translate(-6.685 -7.265)" fill="#fff"/>
    <path id="パス_21" data-name="パス 21" d="M119.012,83.819l-2.471,12.4h-4.829l.227-1.134a4.657,4.657,0,0,1-3.356,1.361,4.827,4.827,0,0,1-2.448-.68,5.139,5.139,0,0,1-1.916-1.983,6.14,6.14,0,0,1-.737-3.072,7.405,7.405,0,0,1,.9-3.628,6.724,6.724,0,0,1,2.414-2.561,6.177,6.177,0,0,1,3.287-.93,3.956,3.956,0,0,1,3.536,1.542l.272-1.315Zm-9.85,8.059a1.736,1.736,0,0,0,1.349.533,1.986,1.986,0,0,0,1.622-.772,3.183,3.183,0,0,0,.623-2.063,2.022,2.022,0,0,0-.487-1.417,1.742,1.742,0,0,0-1.35-.532,1.989,1.989,0,0,0-1.621.771,3.185,3.185,0,0,0-.624,2.063,2.017,2.017,0,0,0,.488,1.417" transform="translate(-8.994 -7.265)" fill="#fff"/>
    <path id="パス_22" data-name="パス 22" d="M144.693,80.042l-3.174,15.869h-4.4l-4.557-7.391-1.474,7.391h-5.214l3.174-15.869h4.4l4.556,7.391,1.474-7.391Z" transform="translate(-10.94 -6.957)" fill="#fff"/>
    <path id="パス_23" data-name="パス 23" d="M160,91.21h-8.683a1.571,1.571,0,0,0,.748,1.11,3.277,3.277,0,0,0,1.633.341,4.394,4.394,0,0,0,2.7-.862l2.13,3.106a9.4,9.4,0,0,1-5.417,1.541,8.566,8.566,0,0,1-3.571-.7,5.511,5.511,0,0,1-2.4-2,5.4,5.4,0,0,1-.85-3.038,7.022,7.022,0,0,1,.964-3.661,6.706,6.706,0,0,1,2.709-2.539,8.483,8.483,0,0,1,4.012-.919,7.67,7.67,0,0,1,3.378.692,5.027,5.027,0,0,1,2.177,1.927,5.386,5.386,0,0,1,.748,2.845A9.221,9.221,0,0,1,160,91.21m-7.651-3.684a2.615,2.615,0,0,0-.827,1.213h4.058a1.538,1.538,0,0,0-.5-1.213,1.947,1.947,0,0,0-1.338-.442,2.171,2.171,0,0,0-1.394.442" transform="translate(-12.714 -7.265)" fill="#fff"/>
    <path id="パス_24" data-name="パス 24" d="M168.958,91.1a2.831,2.831,0,0,0-.046.362q0,.861.952.862A2.751,2.751,0,0,0,171,92.032l.589,3.446a6.893,6.893,0,0,1-3.355.725,5.036,5.036,0,0,1-3.322-1.009,3.5,3.5,0,0,1-1.213-2.845,5.852,5.852,0,0,1,.136-1.224L164.469,88h-1.723l.749-3.74h1.7l.7-3.469h5.124l-.7,3.469h2.539L172.109,88H169.57Z" transform="translate(-14.145 -7.021)" fill="#fff"/>
  </g>
</svg>
