<svg xmlns="http://www.w3.org/2000/svg" width="121" height="123" viewBox="0 0 121 123">
  <g id="Group_267" data-name="Group 267" transform="translate(-1788 -675)">
    <g id="Group_229" data-name="Group 229" transform="translate(1638 -268)">
      <g id="Group_219" data-name="Group 219" transform="translate(150 943)">
        <ellipse id="Ellipse_15" data-name="Ellipse 15" cx="60.5" cy="61.5" rx="60.5" ry="61.5" fill="#ed6b2c"/>
        <g id="Group_217" data-name="Group 217" transform="translate(16.244 18.319)">
          <g id="Group_215" data-name="Group 215" transform="translate(16.037 22.085)">
            <g id="Group_214" data-name="Group 214" transform="translate(0 0)">
              <g id="Group_212" data-name="Group 212" transform="translate(26.693 35.465)">
                <path id="Path_1422" data-name="Path 1422" d="M0,0,15.939.1a3.113,3.113,0,0,1-3.157,3.125L3.2,3.165A3.21,3.21,0,0,1,0,0Z" transform="translate(7.057 15.8) rotate(-115.54)" fill="#fff"/>
                <path id="Path_1400" data-name="Path 1400" d="M3423.012,1260.441l-6.959-14.806,1.175-.571a2.233,2.233,0,0,1,3,1.076l5.023,10.685a2.3,2.3,0,0,1-1.059,3.045Zm-6.406-14.607,6.6,14.045.8-.389a1.879,1.879,0,0,0,.864-2.483l-5.023-10.685a1.821,1.821,0,0,0-2.443-.877Z" transform="translate(-3416.052 -1244.361)" fill="#fff"/>
              </g>
              <g id="Group_213" data-name="Group 213" transform="translate(10.022)">
                <path id="Path_1423" data-name="Path 1423" d="M0,0,15.939.1a3.113,3.113,0,0,1-3.157,3.125L3.2,3.165A3.21,3.21,0,0,1,0,0Z" transform="translate(7.057 15.8) rotate(-115.54)" fill="#fff"/>
                <path id="Path_1401" data-name="Path 1401" d="M3302.437,1008.105l-6.959-14.806,1.176-.571a2.233,2.233,0,0,1,3,1.076l5.023,10.684a2.305,2.305,0,0,1,.091,1.746,2.255,2.255,0,0,1-1.149,1.3Zm-6.407-14.607,6.6,14.045.8-.389a1.839,1.839,0,0,0,.937-1.06,1.876,1.876,0,0,0-.074-1.423l-5.022-10.685a1.821,1.821,0,0,0-2.443-.877Z" transform="translate(-3295.478 -992.025)" fill="#fff"/>
              </g>
              <path id="Path_1402" data-name="Path 1402" d="M3225.223,1020.528l5.022,10.682,5.021,10.682c4.862,10.3,12.161,12.168,21.479,7.066l-6.781-14.425a5.365,5.365,0,0,0-4.594,4.077l-5.749-11.954-5.538-12.057a5.274,5.274,0,0,0,6.007-1.072l-6.781-14.426C3223.55,1003.265,3220.4,1010.214,3225.223,1020.528Z" transform="translate(-3222.994 -997.693)" fill="#fff"/>
            </g>
          </g>
          <path id="Path_1403" data-name="Path 1403" d="M3182.136,908.321q-1.207,1.227-2.484,2.336l6.886,7-19.128.155.152-19.444,8,8.136q1.286-1.1,2.5-2.321a39.339,39.339,0,0,0,0-54.99,37.813,37.813,0,0,0-54.1,0,39.34,39.34,0,0,0,0,54.99,38.222,38.222,0,0,0,10.25,7.449l-4.272,4.342a44.077,44.077,0,0,1-10.05-7.652,45.262,45.262,0,0,1,0-63.267,43.5,43.5,0,0,1,62.238,0A45.261,45.261,0,0,1,3182.136,908.321Z" transform="translate(-3107.008 -831.951)" fill="#fff"/>
          <g id="Group_216" data-name="Group 216" transform="translate(40.659 27.435)">
            <path id="Path_1404" data-name="Path 1404" d="M3401.079,1049.5v-1.826l2.3-2.266c5.521-5.343,8.017-8.183,8.05-11.5,0-2.232-1.064-4.294-4.291-4.294a7.3,7.3,0,0,0-4.591,1.86l-.932-2.1a9.4,9.4,0,0,1,6.121-2.232c4.658,0,6.62,3.246,6.62,6.391,0,4.058-2.894,7.338-7.451,11.8l-1.73,1.623v.068h9.714v2.469Z" transform="translate(-3401.079 -1027.151)" fill="#fff"/>
            <path id="Path_1405" data-name="Path 1405" d="M3527.333,1051.778v-5.985h-10.046v-1.961l9.646-14.033h3.16v13.661h3.027v2.333h-3.027v5.985Zm0-8.319v-7.338q0-1.725.1-3.449h-.1c-.666,1.285-1.2,2.232-1.8,3.246l-5.29,7.473v.068Z" transform="translate(-3501.219 -1029.426)" fill="#fff"/>
          </g>
        </g>
      </g>
    </g>
  </g>
</svg>
