<svg id="Group_217" data-name="Group 217" xmlns="http://www.w3.org/2000/svg" width="47.859" height="46.686" viewBox="0 0 47.859 46.686">
  <g id="Group_215" data-name="Group 215" transform="translate(8.72 12.023)">
    <g id="Group_214" data-name="Group 214" transform="translate(0 0)">
      <g id="Group_212" data-name="Group 212" transform="translate(14.514 19.284)">
        <path id="Path_1422" data-name="Path 1422" d="M0,0,8.667.055a1.693,1.693,0,0,1-1.717,1.7L1.739,1.721A1.746,1.746,0,0,1,0,0Z" transform="translate(3.837 8.576) rotate(-115.54)" fill="#fff"/>
        <path id="Path_1400" data-name="Path 1400" d="M3419.836,1253.324l-3.784-8.051.639-.311a1.215,1.215,0,0,1,1.629.585l2.731,5.81a1.252,1.252,0,0,1-.575,1.656Zm-3.483-7.943,3.589,7.637.436-.212a1.022,1.022,0,0,0,.469-1.35l-2.731-5.81a.991.991,0,0,0-1.329-.477Z" transform="translate(-3416.052 -1244.594)" fill="#fff"/>
      </g>
      <g id="Group_213" data-name="Group 213" transform="translate(5.449)">
        <path id="Path_1423" data-name="Path 1423" d="M0,0,8.667.055a1.693,1.693,0,0,1-1.717,1.7L1.739,1.721A1.746,1.746,0,0,1,0,0Z" transform="translate(3.837 8.576) rotate(-115.54)" fill="#fff"/>
        <path id="Path_1401" data-name="Path 1401" d="M3299.262,1000.988l-3.784-8.051.639-.31a1.215,1.215,0,0,1,1.629.585l2.731,5.81a1.255,1.255,0,0,1,.049.949,1.225,1.225,0,0,1-.625.707Zm-3.484-7.943,3.59,7.637.436-.212a1,1,0,0,0,.51-.576,1.014,1.014,0,0,0-.041-.774l-2.73-5.81a.991.991,0,0,0-1.329-.477Z" transform="translate(-3295.478 -992.258)" fill="#fff"/>
      </g>
      <path id="Path_1402" data-name="Path 1402" d="M3224.206,1010.752l2.73,5.808,2.73,5.808c2.643,5.6,6.612,6.617,11.679,3.842l-3.687-7.844a2.917,2.917,0,0,0-2.5,2.217l-3.126-6.5-3.011-6.556a2.868,2.868,0,0,0,3.266-.583L3228.6,999.1C3223.3,1001.365,3221.582,1005.144,3224.206,1010.752Z" transform="translate(-3222.994 -998.35)" fill="#fff"/>
    </g>
  </g>
  <path id="Path_1403" data-name="Path 1403" d="M3147.859,873.477q-.656.667-1.351,1.27l3.744,3.806-10.4.084.083-10.573,4.353,4.424q.7-.6,1.358-1.262a21.391,21.391,0,0,0,0-29.9,20.561,20.561,0,0,0-29.415,0,21.391,21.391,0,0,0,0,29.9,20.78,20.78,0,0,0,5.574,4.05l-2.323,2.361a23.949,23.949,0,0,1-5.464-4.161,24.611,24.611,0,0,1,0-34.4,23.655,23.655,0,0,1,33.842,0A24.611,24.611,0,0,1,3147.859,873.477Z" transform="translate(-3107.008 -831.951)" fill="#fff"/>
  <g id="Group_216" data-name="Group 216" transform="translate(22.108 14.918)">
    <path id="Path_1404" data-name="Path 1404" d="M3401.079,1039.305v-.993l1.248-1.232c3-2.905,4.359-4.45,4.377-6.252a2.116,2.116,0,0,0-2.333-2.335,3.97,3.97,0,0,0-2.5,1.011l-.506-1.14a5.107,5.107,0,0,1,3.328-1.214,3.335,3.335,0,0,1,3.6,3.475c0,2.207-1.573,3.99-4.052,6.417l-.941.883v.037h5.282v1.342Z" transform="translate(-3401.079 -1027.151)" fill="#fff"/>
    <path id="Path_1405" data-name="Path 1405" d="M3522.749,1041.75V1038.5h-5.463v-1.066l5.245-7.631h1.719v7.428h1.646v1.269h-1.646v3.255Zm0-4.523v-3.99q0-.938.054-1.875h-.054c-.362.7-.652,1.214-.978,1.765l-2.876,4.064v.037Z" transform="translate(-3508.55 -1029.596)" fill="#fff"/>
  </g>
</svg>
