<svg id="stripe" xmlns="http://www.w3.org/2000/svg" xmlns:xlink="http://www.w3.org/1999/xlink" width="584.388" height="17.052" viewBox="0 0 584.388 17.052">
  <defs>
    <clipPath id="clip-path">
      <rect width="584.388" height="17.052" fill="none"/>
    </clipPath>
  </defs>
  <g id="Repeat_Grid_1" data-name="Repeat Grid 1" clip-path="url(#clip-path)">
    <g transform="translate(-185.448 -3043.448)">
      <line id="Line_9" data-name="Line 9" y2="80" transform="translate(243.784 3045.216) rotate(45)" fill="none" stroke="#ffc9a7" stroke-width="3"/>
    </g>
    <g transform="translate(-174.448 -3043.448)">
      <line id="Line_9-2" data-name="Line 9" y2="80" transform="translate(243.784 3045.216) rotate(45)" fill="none" stroke="#ffc9a7" stroke-width="3"/>
    </g>
    <g transform="translate(-163.448 -3043.448)">
      <line id="Line_9-3" data-name="Line 9" y2="80" transform="translate(243.784 3045.216) rotate(45)" fill="none" stroke="#ffc9a7" stroke-width="3"/>
    </g>
    <g transform="translate(-152.448 -3043.448)">
      <line id="Line_9-4" data-name="Line 9" y2="80" transform="translate(243.784 3045.216) rotate(45)" fill="none" stroke="#ffc9a7" stroke-width="3"/>
    </g>
    <g transform="translate(-141.448 -3043.448)">
      <line id="Line_9-5" data-name="Line 9" y2="80" transform="translate(243.784 3045.216) rotate(45)" fill="none" stroke="#ffc9a7" stroke-width="3"/>
    </g>
    <g transform="translate(-130.448 -3043.448)">
      <line id="Line_9-6" data-name="Line 9" y2="80" transform="translate(243.784 3045.216) rotate(45)" fill="none" stroke="#ffc9a7" stroke-width="3"/>
    </g>
    <g transform="translate(-119.448 -3043.448)">
      <line id="Line_9-7" data-name="Line 9" y2="80" transform="translate(243.784 3045.216) rotate(45)" fill="none" stroke="#ffc9a7" stroke-width="3"/>
    </g>
    <g transform="translate(-108.448 -3043.448)">
      <line id="Line_9-8" data-name="Line 9" y2="80" transform="translate(243.784 3045.216) rotate(45)" fill="none" stroke="#ffc9a7" stroke-width="3"/>
    </g>
    <g transform="translate(-97.448 -3043.448)">
      <line id="Line_9-9" data-name="Line 9" y2="80" transform="translate(243.784 3045.216) rotate(45)" fill="none" stroke="#ffc9a7" stroke-width="3"/>
    </g>
    <g transform="translate(-86.448 -3043.448)">
      <line id="Line_9-10" data-name="Line 9" y2="80" transform="translate(243.784 3045.216) rotate(45)" fill="none" stroke="#ffc9a7" stroke-width="3"/>
    </g>
    <g transform="translate(-75.448 -3043.448)">
      <line id="Line_9-11" data-name="Line 9" y2="80" transform="translate(243.784 3045.216) rotate(45)" fill="none" stroke="#ffc9a7" stroke-width="3"/>
    </g>
    <g transform="translate(-64.448 -3043.448)">
      <line id="Line_9-12" data-name="Line 9" y2="80" transform="translate(243.784 3045.216) rotate(45)" fill="none" stroke="#ffc9a7" stroke-width="3"/>
    </g>
    <g transform="translate(-53.448 -3043.448)">
      <line id="Line_9-13" data-name="Line 9" y2="80" transform="translate(243.784 3045.216) rotate(45)" fill="none" stroke="#ffc9a7" stroke-width="3"/>
    </g>
    <g transform="translate(-42.448 -3043.448)">
      <line id="Line_9-14" data-name="Line 9" y2="80" transform="translate(243.784 3045.216) rotate(45)" fill="none" stroke="#ffc9a7" stroke-width="3"/>
    </g>
    <g transform="translate(-31.448 -3043.448)">
      <line id="Line_9-15" data-name="Line 9" y2="80" transform="translate(243.784 3045.216) rotate(45)" fill="none" stroke="#ffc9a7" stroke-width="3"/>
    </g>
    <g transform="translate(-20.448 -3043.448)">
      <line id="Line_9-16" data-name="Line 9" y2="80" transform="translate(243.784 3045.216) rotate(45)" fill="none" stroke="#ffc9a7" stroke-width="3"/>
    </g>
    <g transform="translate(-9.448 -3043.448)">
      <line id="Line_9-17" data-name="Line 9" y2="80" transform="translate(243.784 3045.216) rotate(45)" fill="none" stroke="#ffc9a7" stroke-width="3"/>
    </g>
    <g transform="translate(1.552 -3043.448)">
      <line id="Line_9-18" data-name="Line 9" y2="80" transform="translate(243.784 3045.216) rotate(45)" fill="none" stroke="#ffc9a7" stroke-width="3"/>
    </g>
    <g transform="translate(12.552 -3043.448)">
      <line id="Line_9-19" data-name="Line 9" y2="80" transform="translate(243.784 3045.216) rotate(45)" fill="none" stroke="#ffc9a7" stroke-width="3"/>
    </g>
    <g transform="translate(23.552 -3043.448)">
      <line id="Line_9-20" data-name="Line 9" y2="80" transform="translate(243.784 3045.216) rotate(45)" fill="none" stroke="#ffc9a7" stroke-width="3"/>
    </g>
    <g transform="translate(34.552 -3043.448)">
      <line id="Line_9-21" data-name="Line 9" y2="80" transform="translate(243.784 3045.216) rotate(45)" fill="none" stroke="#ffc9a7" stroke-width="3"/>
    </g>
    <g transform="translate(45.552 -3043.448)">
      <line id="Line_9-22" data-name="Line 9" y2="80" transform="translate(243.784 3045.216) rotate(45)" fill="none" stroke="#ffc9a7" stroke-width="3"/>
    </g>
    <g transform="translate(56.552 -3043.448)">
      <line id="Line_9-23" data-name="Line 9" y2="80" transform="translate(243.784 3045.216) rotate(45)" fill="none" stroke="#ffc9a7" stroke-width="3"/>
    </g>
    <g transform="translate(67.552 -3043.448)">
      <line id="Line_9-24" data-name="Line 9" y2="80" transform="translate(243.784 3045.216) rotate(45)" fill="none" stroke="#ffc9a7" stroke-width="3"/>
    </g>
    <g transform="translate(78.552 -3043.448)">
      <line id="Line_9-25" data-name="Line 9" y2="80" transform="translate(243.784 3045.216) rotate(45)" fill="none" stroke="#ffc9a7" stroke-width="3"/>
    </g>
    <g transform="translate(89.552 -3043.448)">
      <line id="Line_9-26" data-name="Line 9" y2="80" transform="translate(243.784 3045.216) rotate(45)" fill="none" stroke="#ffc9a7" stroke-width="3"/>
    </g>
    <g transform="translate(100.552 -3043.448)">
      <line id="Line_9-27" data-name="Line 9" y2="80" transform="translate(243.784 3045.216) rotate(45)" fill="none" stroke="#ffc9a7" stroke-width="3"/>
    </g>
    <g transform="translate(111.552 -3043.448)">
      <line id="Line_9-28" data-name="Line 9" y2="80" transform="translate(243.784 3045.216) rotate(45)" fill="none" stroke="#ffc9a7" stroke-width="3"/>
    </g>
    <g transform="translate(122.552 -3043.448)">
      <line id="Line_9-29" data-name="Line 9" y2="80" transform="translate(243.784 3045.216) rotate(45)" fill="none" stroke="#ffc9a7" stroke-width="3"/>
    </g>
    <g transform="translate(133.552 -3043.448)">
      <line id="Line_9-30" data-name="Line 9" y2="80" transform="translate(243.784 3045.216) rotate(45)" fill="none" stroke="#ffc9a7" stroke-width="3"/>
    </g>
    <g transform="translate(144.552 -3043.448)">
      <line id="Line_9-31" data-name="Line 9" y2="80" transform="translate(243.784 3045.216) rotate(45)" fill="none" stroke="#ffc9a7" stroke-width="3"/>
    </g>
    <g transform="translate(155.552 -3043.448)">
      <line id="Line_9-32" data-name="Line 9" y2="80" transform="translate(243.784 3045.216) rotate(45)" fill="none" stroke="#ffc9a7" stroke-width="3"/>
    </g>
    <g transform="translate(166.552 -3043.448)">
      <line id="Line_9-33" data-name="Line 9" y2="80" transform="translate(243.784 3045.216) rotate(45)" fill="none" stroke="#ffc9a7" stroke-width="3"/>
    </g>
    <g transform="translate(177.552 -3043.448)">
      <line id="Line_9-34" data-name="Line 9" y2="80" transform="translate(243.784 3045.216) rotate(45)" fill="none" stroke="#ffc9a7" stroke-width="3"/>
    </g>
    <g transform="translate(188.552 -3043.448)">
      <line id="Line_9-35" data-name="Line 9" y2="80" transform="translate(243.784 3045.216) rotate(45)" fill="none" stroke="#ffc9a7" stroke-width="3"/>
    </g>
    <g transform="translate(199.552 -3043.448)">
      <line id="Line_9-36" data-name="Line 9" y2="80" transform="translate(243.784 3045.216) rotate(45)" fill="none" stroke="#ffc9a7" stroke-width="3"/>
    </g>
    <g transform="translate(210.552 -3043.448)">
      <line id="Line_9-37" data-name="Line 9" y2="80" transform="translate(243.784 3045.216) rotate(45)" fill="none" stroke="#ffc9a7" stroke-width="3"/>
    </g>
    <g transform="translate(221.552 -3043.448)">
      <line id="Line_9-38" data-name="Line 9" y2="80" transform="translate(243.784 3045.216) rotate(45)" fill="none" stroke="#ffc9a7" stroke-width="3"/>
    </g>
    <g transform="translate(232.552 -3043.448)">
      <line id="Line_9-39" data-name="Line 9" y2="80" transform="translate(243.784 3045.216) rotate(45)" fill="none" stroke="#ffc9a7" stroke-width="3"/>
    </g>
    <g transform="translate(243.552 -3043.448)">
      <line id="Line_9-40" data-name="Line 9" y2="80" transform="translate(243.784 3045.216) rotate(45)" fill="none" stroke="#ffc9a7" stroke-width="3"/>
    </g>
    <g transform="translate(254.552 -3043.448)">
      <line id="Line_9-41" data-name="Line 9" y2="80" transform="translate(243.784 3045.216) rotate(45)" fill="none" stroke="#ffc9a7" stroke-width="3"/>
    </g>
    <g transform="translate(265.552 -3043.448)">
      <line id="Line_9-42" data-name="Line 9" y2="80" transform="translate(243.784 3045.216) rotate(45)" fill="none" stroke="#ffc9a7" stroke-width="3"/>
    </g>
    <g transform="translate(276.552 -3043.448)">
      <line id="Line_9-43" data-name="Line 9" y2="80" transform="translate(243.784 3045.216) rotate(45)" fill="none" stroke="#ffc9a7" stroke-width="3"/>
    </g>
    <g transform="translate(287.552 -3043.448)">
      <line id="Line_9-44" data-name="Line 9" y2="80" transform="translate(243.784 3045.216) rotate(45)" fill="none" stroke="#ffc9a7" stroke-width="3"/>
    </g>
    <g transform="translate(298.552 -3043.448)">
      <line id="Line_9-45" data-name="Line 9" y2="80" transform="translate(243.784 3045.216) rotate(45)" fill="none" stroke="#ffc9a7" stroke-width="3"/>
    </g>
    <g transform="translate(309.552 -3043.448)">
      <line id="Line_9-46" data-name="Line 9" y2="80" transform="translate(243.784 3045.216) rotate(45)" fill="none" stroke="#ffc9a7" stroke-width="3"/>
    </g>
    <g transform="translate(320.552 -3043.448)">
      <line id="Line_9-47" data-name="Line 9" y2="80" transform="translate(243.784 3045.216) rotate(45)" fill="none" stroke="#ffc9a7" stroke-width="3"/>
    </g>
    <g transform="translate(331.552 -3043.448)">
      <line id="Line_9-48" data-name="Line 9" y2="80" transform="translate(243.784 3045.216) rotate(45)" fill="none" stroke="#ffc9a7" stroke-width="3"/>
    </g>
    <g transform="translate(342.552 -3043.448)">
      <line id="Line_9-49" data-name="Line 9" y2="80" transform="translate(243.784 3045.216) rotate(45)" fill="none" stroke="#ffc9a7" stroke-width="3"/>
    </g>
    <g transform="translate(353.552 -3043.448)">
      <line id="Line_9-50" data-name="Line 9" y2="80" transform="translate(243.784 3045.216) rotate(45)" fill="none" stroke="#ffc9a7" stroke-width="3"/>
    </g>
    <g transform="translate(364.552 -3043.448)">
      <line id="Line_9-51" data-name="Line 9" y2="80" transform="translate(243.784 3045.216) rotate(45)" fill="none" stroke="#ffc9a7" stroke-width="3"/>
    </g>
    <g transform="translate(375.552 -3043.448)">
      <line id="Line_9-52" data-name="Line 9" y2="80" transform="translate(243.784 3045.216) rotate(45)" fill="none" stroke="#ffc9a7" stroke-width="3"/>
    </g>
    <g transform="translate(386.552 -3043.448)">
      <line id="Line_9-53" data-name="Line 9" y2="80" transform="translate(243.784 3045.216) rotate(45)" fill="none" stroke="#ffc9a7" stroke-width="3"/>
    </g>
    <g transform="translate(397.552 -3043.448)">
      <line id="Line_9-54" data-name="Line 9" y2="80" transform="translate(243.784 3045.216) rotate(45)" fill="none" stroke="#ffc9a7" stroke-width="3"/>
    </g>
  </g>
</svg>
