<svg xmlns="http://www.w3.org/2000/svg" width="123" height="123" viewBox="0 0 123 123">
  <g id="Group_268" data-name="Group 268" transform="translate(-1789 -580)">
    <g id="Group_220" data-name="Group 220" transform="translate(1789 580)">
      <circle id="Ellipse_14" data-name="Ellipse 14" cx="61.5" cy="61.5" r="61.5" fill="#28226f"/>
      <g id="Group_218" data-name="Group 218" transform="translate(19.64 19.645)">
        <path id="Path_1406" data-name="Path 1406" d="M3328.119,2260.18a45,45,0,0,1,9.614-3.138c.351-.075.665-.138.952-.191a41.875,41.875,0,0,1,6.069-.738v-15.739h-19.49A77.119,77.119,0,0,0,3328.119,2260.18Z" transform="translate(-3304.648 -2197.053)" fill="#fff"/>
        <path id="Path_1407" data-name="Path 1407" d="M3501.458,2040.687c.395-.2.788-.4,1.177-.609.254-.136.52-.283.813-.45a42.9,42.9,0,0,0,6.616-4.631,41.462,41.462,0,0,0-17.161-9.759,34.376,34.376,0,0,1,5.531,8.112A53.565,53.565,0,0,1,3501.458,2040.687Z" transform="translate(-3439.74 -2023.688)" fill="#fff"/>
        <path id="Path_1408" data-name="Path 1408" d="M3356.925,2017.555c-3.592,1.845-6.907,5.605-9.634,11.027a49.905,49.905,0,0,0-2.53,6.047,42.3,42.3,0,0,0,9.214,3.143c.291.063.587.124.9.186a40.782,40.782,0,0,0,5.587.7v-21.393c-.283,0-.216.006-.32.011C3359.07,2017.328,3357.991,2017.422,3356.925,2017.555Z" transform="translate(-3320.36 -2017.265)" fill="#fff"/>
        <path id="Path_1409" data-name="Path 1409" d="M3353.97,2337.907a42.289,42.289,0,0,0-9.214,3.143,50,50,0,0,0,2.53,6.047c2.728,5.423,6.043,9.183,9.636,11.028,1.065.133,2.142.227,3.213.277.106.005.043.007.326.011V2337.02a40.856,40.856,0,0,0-5.587.7C3354.56,2337.783,3354.261,2337.844,3353.97,2337.907Z" transform="translate(-3320.356 -2274.935)" fill="#fff"/>
        <path id="Path_1410" data-name="Path 1410" d="M3337.721,2124.975a45.181,45.181,0,0,1-9.612-3.2,77.166,77.166,0,0,0-2.856,19.915h19.492V2125.9a41.953,41.953,0,0,1-6.073-.738C3338.387,2125.113,3338.072,2125.05,3337.721,2124.975Z" transform="translate(-3304.64 -2101.484)" fill="#fff"/>
        <path id="Path_1411" data-name="Path 1411" d="M3240.2,2088.544q-.784-.42-1.553-.873c-.27-.157-.546-.323-.841-.505a45.97,45.97,0,0,1-6.843-5.169,41.35,41.35,0,0,0-11.874,27.639h18.06A79.612,79.612,0,0,1,3240.2,2088.544Z" transform="translate(-3219.087 -2069.427)" fill="#fff"/>
        <path id="Path_1412" data-name="Path 1412" d="M3299.411,2363.979c-.359.2-.717.4-1.071.61q-.4.238-.8.484a43.084,43.084,0,0,0-6.148,4.636,41.572,41.572,0,0,0,16.29,8.884,34.4,34.4,0,0,1-5.534-8.116A52.847,52.847,0,0,1,3299.411,2363.979Z" transform="translate(-3277.355 -2296.66)" fill="#fff"/>
        <path id="Path_1413" data-name="Path 1413" d="M3238.681,2262.256c.511-.3,1.028-.621,1.549-.9a79.644,79.644,0,0,1-3.048-20.983h-18.054a41.569,41.569,0,0,0,11.824,27.562,45.7,45.7,0,0,1,6.886-5.156C3238.127,2262.6,3238.411,2262.414,3238.681,2262.256Z" transform="translate(-3219.12 -2197.053)" fill="#fff"/>
        <path id="Path_1414" data-name="Path 1414" d="M3298.522,2039.268c.354.209.71.411,1.069.609a52.777,52.777,0,0,1,2.738-6.5,34.4,34.4,0,0,1,5.525-8.105,41.566,41.566,0,0,0-16.237,8.913,43.029,43.029,0,0,0,6.106,4.6C3297.987,2038.948,3298.254,2039.109,3298.522,2039.268Z" transform="translate(-3277.535 -2023.717)" fill="#fff"/>
        <path id="Path_1415" data-name="Path 1415" d="M3541.6,2260.52c.543.263,1.082.6,1.616.884.309.166.589.32.858.472a45.5,45.5,0,0,1,7.423,5.161,41.246,41.246,0,0,0,10.967-26.663h-18.055A79.919,79.919,0,0,1,3541.6,2260.52Z" transform="translate(-3478.981 -2197.053)" fill="#fff"/>
        <path id="Path_1416" data-name="Path 1416" d="M3448.4,2038.113a42.286,42.286,0,0,0,9.392-2.761,50.625,50.625,0,0,0-2.782-6.778c-2.727-5.422-6.07-9.182-9.662-11.027-1.067-.133-2.172-.228-3.243-.276-.125-.006-.438-.009-.438-.014v21.464a42.957,42.957,0,0,0,5.774-.461C3447.77,2038.211,3448.123,2038.164,3448.4,2038.113Z" transform="translate(-3398.454 -2017.257)" fill="#fff"/>
        <path id="Path_1417" data-name="Path 1417" d="M3502.625,2360.276c-.39-.21-.783-.412-1.178-.61a53.589,53.589,0,0,1-3.023,7.336,34.4,34.4,0,0,1-5.534,8.116,41.581,41.581,0,0,0,17.211-9.721,42.9,42.9,0,0,0-6.663-4.671C3503.144,2360.558,3502.878,2360.411,3502.625,2360.276Z" transform="translate(-3439.729 -2293.184)" fill="#fff"/>
        <path id="Path_1418" data-name="Path 1418" d="M3544.072,2091.839c-.271.153-.551.308-.855.471q-.8.428-1.616.824a81.794,81.794,0,0,1,2.812,20.255h18.06a41.69,41.69,0,0,0-11.017-26.735A45.776,45.776,0,0,1,3544.072,2091.839Z" transform="translate(-3478.981 -2073.18)" fill="#fff"/>
        <path id="Path_1419" data-name="Path 1419" d="M3458.669,2125.55a45.383,45.383,0,0,1-9.846,2.824c-.275.048-.608.1-.98.151a48.317,48.317,0,0,1-6.172.482v15.725h19.66A77.665,77.665,0,0,0,3458.669,2125.55Z" transform="translate(-3398.454 -2104.524)" fill="#fff"/>
        <path id="Path_1420" data-name="Path 1420" d="M3448.858,2256.652a45.185,45.185,0,0,1,9.826,2.8,77.693,77.693,0,0,0,2.645-19.075h-19.658v15.676a48.3,48.3,0,0,1,6.172.467C3448.216,2256.571,3448.579,2256.6,3448.858,2256.652Z" transform="translate(-3398.454 -2197.053)" fill="#fff"/>
        <path id="Path_1421" data-name="Path 1421" d="M3457.781,2340.034a42.4,42.4,0,0,0-9.4-2.76c-.291-.052-.615-.1-.933-.146a42.927,42.927,0,0,0-5.778-.462v21.464c0-.005.31-.008.432-.014,1.076-.049,2.178-.144,3.244-.277,3.592-1.845,6.932-5.605,9.659-11.028A50.6,50.6,0,0,0,3457.781,2340.034Z" transform="translate(-3398.454 -2274.65)" fill="#fff"/>
      </g>
    </g>
  </g>
</svg>
