<svg id="Group_218" data-name="Group 218" xmlns="http://www.w3.org/2000/svg" width="50.944" height="50.938" viewBox="0 0 50.944 50.938">
  <path id="Path_1406" data-name="Path 1406" d="M3327.006,2252.459a27.444,27.444,0,0,1,5.866-1.915c.214-.046.406-.084.581-.117a25.534,25.534,0,0,1,3.7-.451v-9.6h-11.892A47.052,47.052,0,0,0,3327.006,2252.459Z" transform="translate(-3312.685 -2213.94)" fill="#fff"/>
  <path id="Path_1407" data-name="Path 1407" d="M3498.123,2034.664c.241-.12.481-.243.718-.371.155-.083.317-.173.5-.275a26.2,26.2,0,0,0,4.037-2.826,25.3,25.3,0,0,0-10.471-5.955,20.975,20.975,0,0,1,3.375,4.95A32.662,32.662,0,0,1,3498.123,2034.664Z" transform="translate(-3460.464 -2024.293)" fill="#fff"/>
  <path id="Path_1408" data-name="Path 1408" d="M3352.183,2017.443c-2.192,1.126-4.214,3.42-5.878,6.729a30.49,30.49,0,0,0-1.544,3.69,25.808,25.808,0,0,0,5.622,1.918c.177.039.358.076.552.113a24.87,24.87,0,0,0,3.409.428v-13.053c-.173,0-.132,0-.2.007C3353.492,2017.3,3352.834,2017.362,3352.183,2017.443Z" transform="translate(-3329.872 -2017.266)" fill="#fff"/>
  <path id="Path_1409" data-name="Path 1409" d="M3350.378,2337.562a25.8,25.8,0,0,0-5.623,1.918,30.543,30.543,0,0,0,1.544,3.689c1.664,3.309,3.688,5.6,5.879,6.729.65.081,1.307.139,1.961.169.064,0,.026,0,.2.007V2337.02a24.893,24.893,0,0,0-3.409.428C3350.738,2337.486,3350.555,2337.522,3350.378,2337.562Z" transform="translate(-3329.868 -2299.137)" fill="#fff"/>
  <path id="Path_1410" data-name="Path 1410" d="M3332.861,2123.729a27.571,27.571,0,0,1-5.865-1.951,47.083,47.083,0,0,0-1.743,12.152h11.894V2124.3a25.61,25.61,0,0,1-3.706-.45C3333.267,2123.813,3333.075,2123.774,3332.861,2123.729Z" transform="translate(-3312.675 -2109.395)" fill="#fff"/>
  <path id="Path_1411" data-name="Path 1411" d="M3231.968,2085.991c-.319-.171-.635-.349-.948-.533-.164-.1-.333-.2-.513-.308a28.036,28.036,0,0,1-4.176-3.154,25.231,25.231,0,0,0-7.245,16.865h11.02A48.575,48.575,0,0,1,3231.968,2085.991Z" transform="translate(-3219.087 -2074.326)" fill="#fff"/>
  <path id="Path_1412" data-name="Path 1412" d="M3296.286,2363.979c-.219.121-.437.244-.653.372q-.245.145-.488.3a26.3,26.3,0,0,0-3.751,2.829,25.366,25.366,0,0,0,9.94,5.421,20.98,20.98,0,0,1-3.377-4.952A32.211,32.211,0,0,1,3296.286,2363.979Z" transform="translate(-3282.827 -2322.902)" fill="#fff"/>
  <path id="Path_1413" data-name="Path 1413" d="M3231.059,2253.726c.312-.183.627-.379.945-.549a48.6,48.6,0,0,1-1.86-12.8h-11.016a25.367,25.367,0,0,0,7.214,16.817,27.891,27.891,0,0,1,4.2-3.146C3230.721,2253.935,3230.894,2253.822,3231.059,2253.726Z" transform="translate(-3219.123 -2213.94)" fill="#fff"/>
  <path id="Path_1414" data-name="Path 1414" d="M3295.831,2033.813c.216.128.434.251.653.372a32.157,32.157,0,0,1,1.671-3.965,20.974,20.974,0,0,1,3.371-4.946,25.362,25.362,0,0,0-9.908,5.439,26.234,26.234,0,0,0,3.726,2.805C3295.5,2033.617,3295.667,2033.716,3295.831,2033.813Z" transform="translate(-3283.025 -2024.324)" fill="#fff"/>
  <path id="Path_1415" data-name="Path 1415" d="M3541.6,2252.666c.331.161.66.365.986.539.188.1.359.2.524.288a27.792,27.792,0,0,1,4.529,3.149,25.164,25.164,0,0,0,6.692-16.269h-11.017A48.768,48.768,0,0,1,3541.6,2252.666Z" transform="translate(-3503.392 -2213.94)" fill="#fff"/>
  <path id="Path_1416" data-name="Path 1416" d="M3445.78,2029.983a25.8,25.8,0,0,0,5.731-1.684,30.907,30.907,0,0,0-1.7-4.136c-1.664-3.308-3.7-5.6-5.9-6.729-.651-.081-1.325-.139-1.979-.169-.076,0-.267-.005-.267-.008v13.1a26.221,26.221,0,0,0,3.523-.282C3445.392,2030.043,3445.607,2030.014,3445.78,2029.983Z" transform="translate(-3415.301 -2017.257)" fill="#fff"/>
  <path id="Path_1417" data-name="Path 1417" d="M3498.83,2360.038c-.238-.128-.478-.252-.719-.372a32.714,32.714,0,0,1-1.844,4.476,21,21,0,0,1-3.377,4.952,25.374,25.374,0,0,0,10.5-5.932,26.181,26.181,0,0,0-4.065-2.85C3499.146,2360.21,3498.984,2360.12,3498.83,2360.038Z" transform="translate(-3460.452 -2319.1)" fill="#fff"/>
  <path id="Path_1418" data-name="Path 1418" d="M3543.108,2089.818c-.166.093-.336.188-.522.287q-.489.261-.986.5a49.889,49.889,0,0,1,1.715,12.359h11.02a25.437,25.437,0,0,0-6.722-16.313A27.937,27.937,0,0,1,3543.108,2089.818Z" transform="translate(-3503.392 -2078.433)" fill="#fff"/>
  <path id="Path_1419" data-name="Path 1419" d="M3452.042,2125.55a27.7,27.7,0,0,1-6.008,1.723c-.167.029-.371.059-.6.092a29.478,29.478,0,0,1-3.766.294v9.6h12A47.39,47.39,0,0,0,3452.042,2125.55Z" transform="translate(-3415.301 -2112.72)" fill="#fff"/>
  <path id="Path_1420" data-name="Path 1420" d="M3446.056,2250.306a27.555,27.555,0,0,1,6,1.706,47.4,47.4,0,0,0,1.614-11.639h-11.995v9.565a29.551,29.551,0,0,1,3.766.285C3445.664,2250.257,3445.886,2250.276,3446.056,2250.306Z" transform="translate(-3415.301 -2213.94)" fill="#fff"/>
  <path id="Path_1421" data-name="Path 1421" d="M3451.5,2338.721a25.885,25.885,0,0,0-5.735-1.685c-.178-.031-.375-.06-.569-.089a26.22,26.22,0,0,0-3.525-.282v13.1s.189,0,.264-.008c.656-.03,1.329-.088,1.979-.169,2.192-1.126,4.23-3.42,5.894-6.729A30.87,30.87,0,0,0,3451.5,2338.721Z" transform="translate(-3415.301 -2298.825)" fill="#fff"/>
</svg>
